<?xml version="1.0" standalone="no"?>
<!DOCTYPE svg PUBLIC "-//W3C//DTD SVG 20010904//EN"
"http://www.w3.org/TR/2001/REC-SVG-20010904/DTD/svg10.dtd">
<svg version="1.1" xmlns="http://www.w3.org/2000/svg" xmlns:xlink="http://www.w3.org/1999/xlink" 
     preserveAspectRatio="xMinYMin meet" viewBox="-16 0 40 40" fill="#F7931E">
    <g>
        <path d="M30,11.25c0-1.5-1.76-1.25-2.5-1.25c-0.391,0-0.928,0-1.492,0c-0.189-1-0.364-0.996-0.508-1.25 C24.398,6.802,23.223,5,21,5s-6,0-6,0s-3.777,0-6,0S5.601,6.802,4.5,8.75C4.356,9.004,4.182,9,3.992,10c-0.564,0-1.102,0-1.492,0 C1.76,10,0,9.75,0,11.25c0,0.805,1.509,1.218,2.889,1.345C2.394,14.286,2,16.226,2,18.5v5C2,24.325,2.675,25,3.5,25h1 C5.325,25,6,24.325,6,23.5V23h18v0.5c0,0.825,0.675,1.5,1.5,1.5h1c0.825,0,1.5-0.675,1.5-1.5v-5c0-2.274-0.394-4.214-0.889-5.905 C28.491,12.468,30,12.055,30,11.25z M6.241,9.484C7.428,7.384,8.102,7,9,7h12c0.898,0,1.572,0.384,2.759,2.484 c0.106,0.189,0.603,1.104,1.1,2.516H5.141C5.639,10.587,6.135,9.673,6.241,9.484z M6.5,18c-1.104,0-2-0.896-2-2s0.896-2,2-2 s2,0.896,2,2S7.604,18,6.5,18z M19,20h-8v-2h8V20z M23.5,18c-1.104,0-2-0.896-2-2s0.896-2,2-2s2,0.896,2,2S24.604,18,23.5,18z"></path>
    </g>
</svg>
